<svg width="430" height="336" viewBox="0 0 430 336" fill="none" xmlns="http://www.w3.org/2000/svg">
<path d="M400 5H30C16.1929 5 5 16.1929 5 30V310C5 323.807 16.1929 335 30 335H400C413.807 335 425 323.807 425 310V30C425 16.1929 413.807 5 400 5Z" fill="#1D1D1D" stroke="#3C3C3C" stroke-width="2"/>
<g filter="url(#filter0_d_28_62)">
<path d="M425 0C425.552 0 426 0.447715 426 1V61C426 61.5523 425.552 62 425 62H5C4.44772 62 4 61.5523 4 61V1C4 0.447715 4.44772 0 5 0H425Z" fill="#2D2D2D"/>
</g>
<path d="M65 71C70.5228 71 75 66.5228 75 61C75 55.4772 70.5228 51 65 51C59.4772 51 55 55.4772 55 61C55 66.5228 59.4772 71 65 71Z" fill="#1D1D1D" stroke="#5A5A5A" stroke-width="2"/>
<path d="M125 71C130.523 71 135 66.5228 135 61C135 55.4772 130.523 51 125 51C119.477 51 115 55.4772 115 61C115 66.5228 119.477 71 125 71Z" fill="#1D1D1D" stroke="#5A5A5A" stroke-width="2"/>
<path d="M185 71C190.523 71 195 66.5228 195 61C195 55.4772 190.523 51 185 51C179.477 51 175 55.4772 175 61C175 66.5228 179.477 71 185 71Z" fill="#1D1D1D" stroke="#5A5A5A" stroke-width="2"/>
<path d="M245 71C250.523 71 255 66.5228 255 61C255 55.4772 250.523 51 245 51C239.477 51 235 55.4772 235 61C235 66.5228 239.477 71 245 71Z" fill="#1D1D1D" stroke="#5A5A5A" stroke-width="2"/>
<path d="M305 71C310.523 71 315 66.5228 315 61C315 55.4772 310.523 51 305 51C299.477 51 295 55.4772 295 61C295 66.5228 299.477 71 305 71Z" fill="#1D1D1D" stroke="#5A5A5A" stroke-width="2"/>
<path d="M365 71C370.523 71 375 66.5228 375 61C375 55.4772 370.523 51 365 51C359.477 51 355 55.4772 355 61C355 66.5228 359.477 71 365 71Z" fill="#1D1D1D" stroke="#5A5A5A" stroke-width="2"/>
<path d="M116 107H59C54.5817 107 51 110.582 51 115V153.667C51 158.085 54.5817 161.667 59 161.667H116C120.418 161.667 124 158.085 124 153.667V115C124 110.582 120.418 107 116 107Z" fill="#282828" stroke="#3C3C3C"/>
<path d="M201 107H144C139.582 107 136 110.582 136 115V153.667C136 158.085 139.582 161.667 144 161.667H201C205.418 161.667 209 158.085 209 153.667V115C209 110.582 205.418 107 201 107Z" fill="#282828" stroke="#3C3C3C"/>
<path d="M286 107H229C224.582 107 221 110.582 221 115V153.667C221 158.085 224.582 161.667 229 161.667H286C290.418 161.667 294 158.085 294 153.667V115C294 110.582 290.418 107 286 107Z" fill="#282828" stroke="#3C3C3C"/>
<path d="M371 107H314C309.582 107 306 110.582 306 115V153.667C306 158.085 309.582 161.667 314 161.667H371C375.418 161.667 379 158.085 379 153.667V115C379 110.582 375.418 107 371 107Z" fill="#282828" stroke="#3C3C3C"/>
<path d="M116 173.667H59C54.5817 173.667 51 177.248 51 181.667V220.333C51 224.752 54.5817 228.333 59 228.333H116C120.418 228.333 124 224.752 124 220.333V181.667C124 177.248 120.418 173.667 116 173.667Z" fill="#282828" stroke="#3C3C3C"/>
<path d="M201 173.667H144C139.582 173.667 136 177.248 136 181.667V220.333C136 224.752 139.582 228.333 144 228.333H201C205.418 228.333 209 224.752 209 220.333V181.667C209 177.248 205.418 173.667 201 173.667Z" fill="#282828" stroke="#3C3C3C"/>
<path d="M286 173.667H229C224.582 173.667 221 177.248 221 181.667V220.333C221 224.752 224.582 228.333 229 228.333H286C290.418 228.333 294 224.752 294 220.333V181.667C294 177.248 290.418 173.667 286 173.667Z" fill="#282828" stroke="#3C3C3C"/>
<path d="M371 173.667H314C309.582 173.667 306 177.248 306 181.667V220.333C306 224.752 309.582 228.333 314 228.333H371C375.418 228.333 379 224.752 379 220.333V181.667C379 177.248 375.418 173.667 371 173.667Z" fill="#282828" stroke="#3C3C3C"/>
<path d="M116 240.333H59C54.5817 240.333 51 243.915 51 248.333V287C51 291.418 54.5817 295 59 295H116C120.418 295 124 291.418 124 287V248.333C124 243.915 120.418 240.333 116 240.333Z" fill="#282828" stroke="#3C3C3C"/>
<path d="M201 240.333H144C139.582 240.333 136 243.915 136 248.333V287C136 291.418 139.582 295 144 295H201C205.418 295 209 291.418 209 287V248.333C209 243.915 205.418 240.333 201 240.333Z" fill="#282828" stroke="#3C3C3C"/>
<path d="M286 240.333H229C224.582 240.333 221 243.915 221 248.333V287C221 291.418 224.582 295 229 295H286C290.418 295 294 291.418 294 287V248.333C294 243.915 290.418 240.333 286 240.333Z" fill="#282828" stroke="#3C3C3C"/>
<path d="M371 240.333H314C309.582 240.333 306 243.915 306 248.333V287C306 291.418 309.582 295 314 295H371C375.418 295 379 291.418 379 287V248.333C379 243.915 375.418 240.333 371 240.333Z" fill="#282828" stroke="#3C3C3C"/>
<path d="M118.167 121H69.8333C67.164 121 65 123.239 65 126V148C65 150.761 67.164 153 69.8333 153H118.167C120.836 153 123 150.761 123 148V126C123 123.239 120.836 121 118.167 121Z" fill="#FF6382"/>
<path d="M76.4771 144H74.6305L79.9714 129.455H81.7896L87.1305 144H85.2839L80.9373 131.756H80.8237L76.4771 144ZM77.1589 138.318H84.6021V139.881H77.1589V138.318ZM98.6557 134C98.4995 133.522 98.2935 133.093 98.0378 132.714C97.7869 132.331 97.4862 132.004 97.1358 131.734C96.7902 131.464 96.3972 131.259 95.9569 131.116C95.5165 130.974 95.0336 130.903 94.508 130.903C93.6462 130.903 92.8626 131.126 92.1571 131.571C91.4516 132.016 90.8906 132.672 90.4739 133.538C90.0572 134.405 89.8489 135.468 89.8489 136.727C89.8489 137.987 90.0596 139.05 90.481 139.916C90.9024 140.783 91.473 141.438 92.1926 141.884C92.9123 142.329 93.722 142.551 94.6216 142.551C95.455 142.551 96.1889 142.374 96.8233 142.018C97.4625 141.659 97.9597 141.152 98.3148 140.499C98.6747 139.84 98.8546 139.066 98.8546 138.176L99.3944 138.29H95.0194V136.727H100.559V138.29C100.559 139.488 100.303 140.529 99.7921 141.415C99.2855 142.3 98.5847 142.987 97.6898 143.474C96.7997 143.957 95.7769 144.199 94.6216 144.199C93.3337 144.199 92.2021 143.896 91.2267 143.29C90.2561 142.684 89.4985 141.822 88.954 140.705C88.4142 139.587 88.1444 138.261 88.1444 136.727C88.1444 135.577 88.2982 134.542 88.606 133.624C88.9185 132.7 89.3588 131.914 89.927 131.266C90.4952 130.617 91.1676 130.12 91.9441 129.774C92.7206 129.429 93.5752 129.256 94.508 129.256C95.275 129.256 95.99 129.372 96.6529 129.604C97.3205 129.831 97.9147 130.155 98.4355 130.577C98.9611 130.993 99.3991 131.493 99.7495 132.075C100.1 132.653 100.341 133.295 100.474 134H98.6557ZM103.723 144H101.877L107.218 129.455H109.036L114.377 144H112.53L108.183 131.756H108.07L103.723 144ZM104.405 138.318H111.848V139.881H104.405V138.318Z" fill="#141414"/>
<path d="M203.167 121H154.833C152.164 121 150 123.239 150 126V148C150 150.761 152.164 153 154.833 153H203.167C205.836 153 208 150.761 208 148V126C208 123.239 205.836 121 203.167 121Z" fill="#95C8EC"/>
<path d="M163.557 144H161.711L167.051 129.455H168.87L174.211 144H172.364L168.017 131.756H167.904L163.557 144ZM164.239 138.318H171.682V139.881H164.239V138.318ZM176.476 129.455H178.578L183.522 141.528H183.692L188.635 129.455H190.738V144H189.09V132.949H188.948L184.402 144H182.811L178.266 132.949H178.124V144H176.476V129.455ZM196.031 129.455V144H194.269V129.455H196.031Z" fill="#141414"/>
<path d="M288.167 121H239.833C237.164 121 235 123.239 235 126V148C235 150.761 237.164 153 239.833 153H288.167C290.836 153 293 150.761 293 148V126C293 123.239 290.836 121 288.167 121Z" fill="#78C896"/>
<path d="M249.007 129.455V144H247.246V129.455H249.007ZM260.493 133.091C260.408 132.371 260.062 131.812 259.456 131.415C258.85 131.017 258.107 130.818 257.226 130.818C256.582 130.818 256.019 130.922 255.536 131.131C255.058 131.339 254.684 131.625 254.414 131.99C254.149 132.355 254.016 132.769 254.016 133.233C254.016 133.621 254.108 133.955 254.293 134.234C254.482 134.509 254.724 134.739 255.017 134.923C255.311 135.103 255.619 135.252 255.941 135.371C256.263 135.484 256.559 135.577 256.828 135.648L258.306 136.045C258.685 136.145 259.106 136.282 259.57 136.457C260.039 136.633 260.486 136.872 260.912 137.175C261.343 137.473 261.698 137.857 261.978 138.325C262.257 138.794 262.397 139.369 262.397 140.051C262.397 140.837 262.191 141.547 261.779 142.182C261.372 142.816 260.775 143.321 259.989 143.695C259.208 144.069 258.258 144.256 257.141 144.256C256.099 144.256 255.197 144.088 254.435 143.751C253.677 143.415 253.081 142.946 252.645 142.345C252.214 141.744 251.971 141.045 251.914 140.25H253.732C253.779 140.799 253.964 141.254 254.286 141.614C254.613 141.969 255.025 142.234 255.522 142.409C256.024 142.58 256.563 142.665 257.141 142.665C257.813 142.665 258.417 142.556 258.952 142.338C259.487 142.116 259.911 141.808 260.223 141.415C260.536 141.017 260.692 140.553 260.692 140.023C260.692 139.54 260.557 139.147 260.287 138.844C260.017 138.541 259.662 138.295 259.222 138.105C258.782 137.916 258.306 137.75 257.794 137.608L256.005 137.097C254.868 136.77 253.969 136.304 253.306 135.697C252.643 135.091 252.311 134.298 252.311 133.318C252.311 132.504 252.532 131.794 252.972 131.188C253.417 130.577 254.014 130.103 254.762 129.767C255.515 129.426 256.355 129.256 257.283 129.256C258.221 129.256 259.054 129.424 259.783 129.76C260.512 130.091 261.09 130.546 261.516 131.124C261.947 131.701 262.174 132.357 262.198 133.091H260.493ZM267.935 144L263.957 129.455H265.747L268.787 141.301H268.929L272.026 129.455H274.014L277.111 141.301H277.253L280.293 129.455H282.082L278.105 144H276.287L273.077 132.409H272.963L269.753 144H267.935Z" fill="#141414"/>
<path d="M118.167 188H69.8333C67.164 188 65 190.239 65 193V215C65 217.761 67.164 220 69.8333 220H118.167C120.836 220 123 217.761 123 215V193C123 190.239 120.836 188 118.167 188Z" fill="#ECC076"/>
<path d="M83.8375 211V196.455H92.5591V198.017H85.5989V202.932H91.9057V204.494H85.5989V211H83.8375ZM95.3201 211V209.722L100.121 204.466C100.685 203.85 101.149 203.315 101.513 202.861C101.878 202.402 102.148 201.971 102.323 201.568C102.503 201.161 102.593 200.735 102.593 200.29C102.593 199.778 102.47 199.336 102.224 198.962C101.982 198.588 101.651 198.299 101.229 198.095C100.808 197.892 100.334 197.79 99.8088 197.79C99.2501 197.79 98.7624 197.906 98.3457 198.138C97.9338 198.365 97.6142 198.685 97.3869 199.097C97.1644 199.509 97.0531 199.991 97.0531 200.545H95.377C95.377 199.693 95.5734 198.945 95.9664 198.301C96.3594 197.657 96.8945 197.155 97.5716 196.795C98.2534 196.436 99.0181 196.256 99.8656 196.256C100.718 196.256 101.473 196.436 102.131 196.795C102.789 197.155 103.305 197.641 103.68 198.251C104.054 198.862 104.241 199.542 104.241 200.29C104.241 200.825 104.144 201.348 103.949 201.859C103.76 202.366 103.429 202.932 102.955 203.557C102.486 204.177 101.835 204.935 101.002 205.83L97.7349 209.324V209.438H104.496V211H95.3201Z" fill="#141414"/>
<path d="M203.167 188H154.833C152.164 188 150 190.239 150 193V215C150 217.761 152.164 220 154.833 220H203.167C205.836 220 208 217.761 208 215V193C208 190.239 205.836 188 203.167 188Z" fill="#A073EB"/>
<path d="M164.498 211H160.009V196.455H164.697C166.108 196.455 167.315 196.746 168.319 197.328C169.323 197.906 170.092 198.737 170.627 199.821C171.162 200.901 171.43 202.193 171.43 203.699C171.43 205.214 171.16 206.518 170.62 207.612C170.08 208.701 169.294 209.539 168.262 210.126C167.23 210.709 165.975 211 164.498 211ZM161.771 209.438H164.384C165.587 209.438 166.584 209.205 167.374 208.741C168.165 208.277 168.755 207.617 169.143 206.76C169.531 205.903 169.725 204.883 169.725 203.699C169.725 202.525 169.534 201.514 169.15 200.666C168.767 199.814 168.194 199.161 167.431 198.706C166.669 198.247 165.72 198.017 164.583 198.017H161.771V209.438ZM178.873 211H174.384V196.455H179.072C180.483 196.455 181.69 196.746 182.694 197.328C183.698 197.906 184.467 198.737 185.002 199.821C185.537 200.901 185.805 202.193 185.805 203.699C185.805 205.214 185.535 206.518 184.995 207.612C184.455 208.701 183.669 209.539 182.637 210.126C181.605 210.709 180.35 211 178.873 211ZM176.146 209.438H178.759C179.962 209.438 180.959 209.205 181.749 208.741C182.54 208.277 183.13 207.617 183.518 206.76C183.906 205.903 184.1 204.883 184.1 203.699C184.1 202.525 183.909 201.514 183.525 200.666C183.142 199.814 182.569 199.161 181.806 198.706C181.044 198.247 180.095 198.017 178.958 198.017H176.146V209.438ZM196.714 200.091C196.629 199.371 196.283 198.812 195.677 198.415C195.071 198.017 194.328 197.818 193.447 197.818C192.803 197.818 192.24 197.922 191.757 198.131C191.278 198.339 190.904 198.625 190.634 198.99C190.369 199.355 190.237 199.769 190.237 200.233C190.237 200.621 190.329 200.955 190.514 201.234C190.703 201.509 190.945 201.739 191.238 201.923C191.532 202.103 191.839 202.252 192.161 202.371C192.483 202.484 192.779 202.577 193.049 202.648L194.526 203.045C194.905 203.145 195.327 203.282 195.791 203.457C196.259 203.633 196.707 203.872 197.133 204.175C197.564 204.473 197.919 204.857 198.198 205.325C198.478 205.794 198.617 206.369 198.617 207.051C198.617 207.837 198.411 208.547 197.999 209.182C197.592 209.816 196.996 210.321 196.21 210.695C195.428 211.069 194.479 211.256 193.362 211.256C192.32 211.256 191.418 211.088 190.656 210.751C189.898 210.415 189.302 209.946 188.866 209.345C188.435 208.744 188.191 208.045 188.134 207.25H189.953C190 207.799 190.185 208.254 190.507 208.614C190.833 208.969 191.245 209.234 191.742 209.409C192.244 209.58 192.784 209.665 193.362 209.665C194.034 209.665 194.638 209.556 195.173 209.338C195.708 209.116 196.132 208.808 196.444 208.415C196.757 208.017 196.913 207.553 196.913 207.023C196.913 206.54 196.778 206.147 196.508 205.844C196.238 205.541 195.883 205.295 195.443 205.105C195.002 204.916 194.526 204.75 194.015 204.608L192.225 204.097C191.089 203.77 190.189 203.304 189.526 202.697C188.864 202.091 188.532 201.298 188.532 200.318C188.532 199.504 188.752 198.794 189.193 198.188C189.638 197.577 190.234 197.103 190.982 196.767C191.735 196.426 192.576 196.256 193.504 196.256C194.441 196.256 195.275 196.424 196.004 196.76C196.733 197.091 197.311 197.546 197.737 198.124C198.168 198.701 198.395 199.357 198.419 200.091H196.714Z" fill="#141414"/>
<path d="M288.167 188H239.833C237.164 188 235 190.239 235 193V215C235 217.761 237.164 220 239.833 220H288.167C290.836 220 293 217.761 293 215V193C293 190.239 290.836 188 288.167 188Z" fill="#F36FAB"/>
<path d="M254.539 211H250.05V196.455H254.738C256.149 196.455 257.356 196.746 258.36 197.328C259.364 197.906 260.133 198.737 260.668 199.821C261.203 200.901 261.471 202.193 261.471 203.699C261.471 205.214 261.201 206.518 260.661 207.612C260.121 208.701 259.335 209.539 258.303 210.126C257.271 210.709 256.016 211 254.539 211ZM251.812 209.438H254.425C255.628 209.438 256.625 209.205 257.415 208.741C258.206 208.277 258.796 207.617 259.184 206.76C259.572 205.903 259.766 204.883 259.766 203.699C259.766 202.525 259.575 201.514 259.191 200.666C258.808 199.814 258.235 199.161 257.472 198.706C256.71 198.247 255.761 198.017 254.624 198.017H251.812V209.438ZM272.38 200.091C272.295 199.371 271.949 198.812 271.343 198.415C270.737 198.017 269.994 197.818 269.113 197.818C268.469 197.818 267.906 197.922 267.423 198.131C266.944 198.339 266.57 198.625 266.3 198.99C266.035 199.355 265.903 199.769 265.903 200.233C265.903 200.621 265.995 200.955 266.18 201.234C266.369 201.509 266.611 201.739 266.904 201.923C267.198 202.103 267.505 202.252 267.827 202.371C268.149 202.484 268.445 202.577 268.715 202.648L270.192 203.045C270.571 203.145 270.993 203.282 271.457 203.457C271.925 203.633 272.373 203.872 272.799 204.175C273.23 204.473 273.585 204.857 273.864 205.325C274.144 205.794 274.283 206.369 274.283 207.051C274.283 207.837 274.077 208.547 273.665 209.182C273.258 209.816 272.662 210.321 271.876 210.695C271.094 211.069 270.145 211.256 269.028 211.256C267.986 211.256 267.084 211.088 266.322 210.751C265.564 210.415 264.968 209.946 264.532 209.345C264.101 208.744 263.857 208.045 263.8 207.25H265.619C265.666 207.799 265.851 208.254 266.173 208.614C266.499 208.969 266.911 209.234 267.408 209.409C267.91 209.58 268.45 209.665 269.028 209.665C269.7 209.665 270.304 209.556 270.839 209.338C271.374 209.116 271.798 208.808 272.11 208.415C272.423 208.017 272.579 207.553 272.579 207.023C272.579 206.54 272.444 206.147 272.174 205.844C271.904 205.541 271.549 205.295 271.109 205.105C270.668 204.916 270.192 204.75 269.681 204.608L267.891 204.097C266.755 203.77 265.855 203.304 265.192 202.697C264.53 202.091 264.198 201.298 264.198 200.318C264.198 199.504 264.418 198.794 264.859 198.188C265.304 197.577 265.9 197.103 266.648 196.767C267.401 196.426 268.242 196.256 269.17 196.256C270.107 196.256 270.941 196.424 271.67 196.76C272.399 197.091 272.977 197.546 273.403 198.124C273.834 198.701 274.061 199.357 274.085 200.091H272.38ZM278.941 196.455V211H277.179V196.455H278.941Z" fill="#141414"/>
<defs>
<filter id="filter0_d_28_62" x="0" y="0" width="430" height="70" filterUnits="userSpaceOnUse" color-interpolation-filters="sRGB">
<feFlood flood-opacity="0" result="BackgroundImageFix"/>
<feColorMatrix in="SourceAlpha" type="matrix" values="0 0 0 0 0 0 0 0 0 0 0 0 0 0 0 0 0 0 127 0" result="hardAlpha"/>
<feOffset dy="4"/>
<feGaussianBlur stdDeviation="2"/>
<feComposite in2="hardAlpha" operator="out"/>
<feColorMatrix type="matrix" values="0 0 0 0 0 0 0 0 0 0 0 0 0 0 0 0 0 0 0.25 0"/>
<feBlend mode="normal" in2="BackgroundImageFix" result="effect1_dropShadow_28_62"/>
<feBlend mode="normal" in="SourceGraphic" in2="effect1_dropShadow_28_62" result="shape"/>
</filter>
</defs>
</svg>
