<svg width="18" height="20" viewBox="0 0 18 20" fill="none" xmlns="http://www.w3.org/2000/svg">
<path d="M14 7C15.6569 7 17 5.65685 17 4C17 2.34315 15.6569 1 14 1C12.3431 1 11 2.34315 11 4C11 5.65685 12.3431 7 14 7Z" stroke="#A3A3A3" stroke-linecap="round" stroke-linejoin="round"/>
<path d="M4 7C5.65685 7 7 5.65685 7 4C7 2.34315 5.65685 1 4 1C2.34315 1 1 2.34315 1 4C1 5.65685 2.34315 7 4 7Z" stroke="#A3A3A3" stroke-linecap="round" stroke-linejoin="round"/>
<path d="M4 10L14 10" stroke="#A3A3A3" stroke-linecap="round" stroke-linejoin="round"/>
<path d="M4 7V10" stroke="#A3A3A3" stroke-linecap="round" stroke-linejoin="round"/>
<path d="M14 7V10" stroke="#A3A3A3" stroke-linecap="round" stroke-linejoin="round"/>
<path d="M9 10V13" stroke="#A3A3A3" stroke-linecap="round" stroke-linejoin="round"/>
<path d="M9 19C10.6569 19 12 17.6569 12 16C12 14.3431 10.6569 13 9 13C7.34315 13 6 14.3431 6 16C6 17.6569 7.34315 19 9 19Z" stroke="#A3A3A3" stroke-linecap="round" stroke-linejoin="round"/>
</svg>
