<svg width="50" height="41" viewBox="0 0 50 41" fill="none" xmlns="http://www.w3.org/2000/svg">
<path d="M48 26.9999H45.5" stroke="white" stroke-width="1.5" stroke-miterlimit="2" stroke-linecap="round" stroke-linejoin="round"/>
<path d="M38.5 20.9999H30.5" stroke="white" stroke-width="1.5" stroke-miterlimit="2" stroke-linecap="round" stroke-linejoin="round"/>
<path d="M26.7501 20.9999H11.5001C11.5001 20.9999 11.2661 16.8349 15.5001 12.9999" stroke="white" stroke-width="1.5" stroke-miterlimit="2" stroke-linecap="round" stroke-linejoin="round"/>
<path d="M13 39.4999C16.0376 39.4999 18.5 37.0374 18.5 33.9999C18.5 30.9623 16.0376 28.4999 13 28.4999C9.96243 28.4999 7.5 30.9623 7.5 33.9999C7.5 37.0374 9.96243 39.4999 13 39.4999Z" stroke="white" stroke-width="1.5" stroke-miterlimit="2" stroke-linecap="round" stroke-linejoin="round"/>
<path d="M31.5 33.9999C31.5 30.9639 33.964 28.4999 37 28.4999C40.036 28.4999 42.5 30.9639 42.5 33.9999C42.5 37.0359 40.036 39.4999 37 39.4999C35.071 39.4999 33.372 38.5049 32.391 36.9999" stroke="white" stroke-width="1.5" stroke-miterlimit="2" stroke-linecap="round" stroke-linejoin="round"/>
<path d="M7.5 33.9999H4.213C2.438 33.9999 1 32.5619 1 30.7869C1 30.2599 1 29.7239 1 29.2279C1 27.9969 1.998 26.9999 3.228 26.9999H3.23C3.686 26.9999 4.086 26.6979 4.212 26.2589C4.631 24.7919 5.6 21.3999 6.453 18.4139C7.369 15.2089 10.298 12.9999 13.63 12.9999H30.821C32.719 12.9999 34.405 14.2149 35.005 16.0159C35.094 16.2809 35.185 16.5539 35.277 16.8309C36.306 19.9179 39.195 21.9999 42.449 21.9999H43.106C44.404 21.9999 45.649 22.5159 46.567 23.4329C47.484 24.3509 48 25.5959 48 26.8939V26.9999C48.552 26.9999 49 27.4479 49 27.9999C49 28.7349 49 29.7769 49 30.7869C49 32.5619 47.562 33.9999 45.787 33.9999H42.5" stroke="white" stroke-width="1.5" stroke-miterlimit="2" stroke-linecap="round" stroke-linejoin="round"/>
<path d="M31.5 33.9999H22" stroke="white" stroke-width="1.5" stroke-miterlimit="2" stroke-linecap="round" stroke-linejoin="round"/>
<path d="M32.491 9.74092C35.528 8.92792 38.654 10.7329 39.467 13.7689" stroke="white" stroke-width="1.5" stroke-miterlimit="2" stroke-linecap="round" stroke-linejoin="round"/>
<path d="M31.385 5.61482C36.699 4.19082 42.17 7.34882 43.594 12.6638" stroke="white" stroke-width="1.5" stroke-miterlimit="2" stroke-linecap="round" stroke-linejoin="round"/>
<path d="M30.2791 1.48788C37.8711 -0.546118 45.6871 3.96588 47.7211 11.5579" stroke="white" stroke-width="1.5" stroke-miterlimit="2" stroke-linecap="round" stroke-linejoin="round"/>
</svg>
