<svg width="171" height="177" viewBox="0 0 171 177" fill="none" xmlns="http://www.w3.org/2000/svg">
<path d="M85.5 55C100.688 55 113 42.6878 113 27.5C113 12.3122 100.688 0 85.5 0C70.3122 0 58 12.3122 58 27.5C58 42.6878 70.3122 55 85.5 55Z" fill="#FF6B6B"/>
<path d="M143.5 82C158.688 82 171 69.6878 171 54.5C171 39.3122 158.688 27 143.5 27C128.312 27 116 39.3122 116 54.5C116 69.6878 128.312 82 143.5 82Z" fill="#FFD166"/>
<path d="M143.5 149C158.688 149 171 136.688 171 121.5C171 106.312 158.688 94 143.5 94C128.312 94 116 106.312 116 121.5C116 136.688 128.312 149 143.5 149Z" fill="#06D6A0"/>
<path d="M85.5 177C100.688 177 113 164.688 113 149.5C113 134.312 100.688 122 85.5 122C70.3122 122 58 134.312 58 149.5C58 164.688 70.3122 177 85.5 177Z" fill="#118AB2"/>
<path d="M27.5 149C42.6878 149 55 136.688 55 121.5C55 106.312 42.6878 94 27.5 94C12.3122 94 0 106.312 0 121.5C0 136.688 12.3122 149 27.5 149Z" fill="#9B5DE5"/>
<path d="M27.5 82C42.6878 82 55 69.6878 55 54.5C55 39.3122 42.6878 27 27.5 27C12.3122 27 0 39.3122 0 54.5C0 69.6878 12.3122 82 27.5 82Z" fill="#FF8FAB"/>
<path d="M85.5 110C97.3741 110 107 100.374 107 88.5C107 76.6259 97.3741 67 85.5 67C73.6259 67 64 76.6259 64 88.5C64 100.374 73.6259 110 85.5 110Z" fill="#111827"/>
</svg>
