<svg width="32" height="32" viewBox="0 0 32 32" fill="none" xmlns="http://www.w3.org/2000/svg">
<g clip-path="url(#clip0_37_8)">
<path d="M26 0H6C2.68629 0 0 2.68629 0 6V26C0 29.3137 2.68629 32 6 32H26C29.3137 32 32 29.3137 32 26V6C32 2.68629 29.3137 0 26 0Z" fill="#3B82F6"/>
<path fill-rule="evenodd" clip-rule="evenodd" d="M26.597 5.403C28.884 7.69 28.884 11.182 26.597 13.469L21.705 18.361C18.817 21.249 13.91 20.652 11.837 17.051C14.063 15.551 14.905 16.036 16.55 16.732C17.518 17.133 18.653 16.923 19.439 16.137L24.219 11.357C25.252 10.324 25.252 8.548 24.219 7.515C23.186 6.482 21.41 6.482 20.377 7.515L17.032 10.86C15.897 10.481 14.621 10.32 13.403 10.529C13.653 10.118 13.956 9.726 14.305 9.377L18.305 5.377C20.592 3.09 24.084 3.09 26.371 5.377L26.597 5.403ZM5.403 26.597L5.403 26.597C7.69 28.884 11.182 28.884 13.469 26.597L17.84 22.226C18.202 21.864 18.514 21.459 18.77 21.016C17.429 21.601 15.991 21.459 14.733 20.843L11.357 24.219C10.324 25.252 8.548 25.252 7.515 24.219C6.482 23.186 6.482 21.41 7.515 20.377L12.377 15.515C13.357 14.535 15.312 14.409 16.539 15.761C18.219 15.611 18.774 15.338 19.663 14.487C17.768 11.146 13.044 10.639 10.296 13.387L5.403 18.28C3.116 20.567 3.116 24.059 5.403 26.597Z" fill="white"/>
</g>
<defs>
<clipPath id="clip0_37_8">
<rect width="32" height="32" fill="white"/>
</clipPath>
</defs>
</svg>
