<svg width="276" height="526" viewBox="0 0 276 526" fill="none" xmlns="http://www.w3.org/2000/svg">
<path d="M12.9999 525.5C10.5276 525.5 8.11085 524.767 6.05518 523.394C3.99952 522.02 2.39731 520.068 1.45115 517.784C0.504996 515.5 0.257381 512.987 0.739642 510.562C1.2219 508.137 2.41237 505.91 4.1605 504.161L245.323 263L4.1605 21.8388C1.81918 19.4938 0.504755 16.3152 0.506111 13.0015C0.507468 9.68782 1.82451 6.51025 4.16774 4.16722C6.51098 1.82418 9.68865 0.507424 13.0023 0.506348C16.316 0.505273 19.4946 1.81997 21.8393 4.16148L271.839 254.161C274.183 256.506 275.5 259.685 275.5 263C275.5 266.315 274.183 269.495 271.839 271.839L21.8393 521.839C20.6798 523.001 19.3019 523.923 17.785 524.551C16.268 525.18 14.6418 525.502 12.9999 525.5Z" fill="black"/>
</svg>
