<svg width="399" height="378" viewBox="0 0 399 378" fill="none" xmlns="http://www.w3.org/2000/svg">
<path d="M63.5835 0.733398H335.5C370.222 0.733398 398.25 28.7841 398.25 63.5334V251.933C398.25 286.683 370.222 314.733 335.5 314.733H262.292L199.542 377.533L136.792 314.733H63.5835C28.8618 314.733 0.833496 286.683 0.833496 251.933V63.5334C0.833496 28.7841 28.8618 0.733398 63.5835 0.733398ZM63.5835 21.6667C40.5752 21.6667 21.7502 40.5067 21.7502 63.5334V251.933C21.7502 274.96 40.5752 293.8 63.5835 293.8H145.368L199.542 348.017L253.716 293.8H335.5C358.509 293.8 377.334 274.96 377.334 251.933V63.5334C377.334 40.5067 358.509 21.6667 335.5 21.6667H63.5835Z" fill="white"/>
</svg>
